# xmcd
#
# Track frame offsets:
#	150
#	19237
#	30674
#	41436
#	56211
#	66298
#	82235
#	96335
#	110210
#	124797
#	136947
#	151534
#	163196
#	174708
#	184158
#	196383
#	216295
#	227207
#
# Disc length: 3175 seconds
#
# Revision: 0
# Processed by: cddbd v1.5.2PL0 Copyright (c) Steve Scherf et al.
# Submitted via: EasyCDDAExtractor 10.2.0.1
#
DISCID=090c6512
DTITLE=Various Artist - Cowboy Christmas
DYEAR=2007
DGENRE=Country
TTITLE0=Johnny Cash - The First Noel
TTITLE1=Eddy Arnold - I heard the bells on christmas day
TTITLE2=Bobby Sherman - I saw mommy kissing Santa Claus
TTITLE3=Lynn Anderson - Joy to the world
TTITLE4=Gene Autry - Santa Claus is comming to town
TTITLE5=Johnny Paycheck - Honky Tonk Christmas
TTITLE6=Moe Bandy - I'll be home for christmas
TTITLE7=Rosemary Clooney - Silver Bells
TTITLE8=Johnny Preston - I want a rock and roll guitar (for christmas)
TTITLE9=Johnny Adams - Little boy that Santa Claus forgot
TTITLE10=Mike Berry - Blue christmas
TTITLE11=Tommy Roe - Could I spend christmas with you
TTITLE12=Johnny Preston - A new baby for christmas
TTITLE13=Jim Reeves - O come all ye faithful
TTITLE14=Rosemary Cloony - Snowflake
TTITLE15=Nashville Gamblers - Tennessee christmas
TTITLE16=Cajun Boys - Santa looked a lot like daddy
TTITLE17=Connie Francis - Baby's first christmas
EXTD=
EXTT0=
EXTT1=
EXTT2=
EXTT3=
EXTT4=
EXTT5=
EXTT6=
EXTT7=
EXTT8=
EXTT9=
EXTT10=
EXTT11=
EXTT12=
EXTT13=
EXTT14=
EXTT15=
EXTT16=
EXTT17=
PLAYORDER=
